<svg id="visual" viewBox="0 0 900 200" width="900" height="200" xmlns="http://www.w3.org/2000/svg" xmlns:xlink="http://www.w3.org/1999/xlink" version="1.1"><path d="M0 137L18.8 126.8C37.7 116.7 75.3 96.3 112.8 98.2C150.3 100 187.7 124 225.2 123.3C262.7 122.7 300.3 97.3 337.8 96.8C375.3 96.3 412.7 120.7 450.2 133.7C487.7 146.7 525.3 148.3 562.8 146.5C600.3 144.7 637.7 139.3 675.2 129.7C712.7 120 750.3 106 787.8 99.5C825.3 93 862.7 94 881.3 94.5L900 95L900 201L881.3 201C862.7 201 825.3 201 787.8 201C750.3 201 712.7 201 675.2 201C637.7 201 600.3 201 562.8 201C525.3 201 487.7 201 450.2 201C412.7 201 375.3 201 337.8 201C300.3 201 262.7 201 225.2 201C187.7 201 150.3 201 112.8 201C75.3 201 37.7 201 18.8 201L0 201Z" fill="#FB8C00" stroke-linecap="round" stroke-linejoin="miter"></path></svg>