<svg id="visual" viewBox="0 0 900 200" width="900" height="200" xmlns="http://www.w3.org/2000/svg" xmlns:xlink="http://www.w3.org/1999/xlink" version="1.1"><path d="M0 106L21.5 104.8C43 103.7 86 101.3 128.8 101.7C171.7 102 214.3 105 257.2 107C300 109 343 110 385.8 111.3C428.7 112.7 471.3 114.3 514.2 124.3C557 134.3 600 152.7 642.8 153.5C685.7 154.3 728.3 137.7 771.2 131.8C814 126 857 131 878.5 133.5L900 136L900 0L878.5 0C857 0 814 0 771.2 0C728.3 0 685.7 0 642.8 0C600 0 557 0 514.2 0C471.3 0 428.7 0 385.8 0C343 0 300 0 257.2 0C214.3 0 171.7 0 128.8 0C86 0 43 0 21.5 0L0 0Z" fill="#d373cd"></path><path d="M0 135L21.5 136C43 137 86 139 128.8 127C171.7 115 214.3 89 257.2 75C300 61 343 59 385.8 69C428.7 79 471.3 101 514.2 107.2C557 113.3 600 103.7 642.8 93.8C685.7 84 728.3 74 771.2 80.2C814 86.3 857 108.7 878.5 119.8L900 131L900 0L878.5 0C857 0 814 0 771.2 0C728.3 0 685.7 0 642.8 0C600 0 557 0 514.2 0C471.3 0 428.7 0 385.8 0C343 0 300 0 257.2 0C214.3 0 171.7 0 128.8 0C86 0 43 0 21.5 0L0 0Z" fill="#e293dd"></path><path d="M0 67L21.5 64.3C43 61.7 86 56.3 128.8 56.7C171.7 57 214.3 63 257.2 62C300 61 343 53 385.8 58.7C428.7 64.3 471.3 83.7 514.2 85.5C557 87.3 600 71.7 642.8 69.7C685.7 67.7 728.3 79.3 771.2 77C814 74.7 857 58.3 878.5 50.2L900 42L900 0L878.5 0C857 0 814 0 771.2 0C728.3 0 685.7 0 642.8 0C600 0 557 0 514.2 0C471.3 0 428.7 0 385.8 0C343 0 300 0 257.2 0C214.3 0 171.7 0 128.8 0C86 0 43 0 21.5 0L0 0Z" fill="#f0b3ed"></path><path d="M0 19L21.5 25.5C43 32 86 45 128.8 48C171.7 51 214.3 44 257.2 37.8C300 31.7 343 26.3 385.8 22C428.7 17.7 471.3 14.3 514.2 13.2C557 12 600 13 642.8 15.2C685.7 17.3 728.3 20.7 771.2 25.8C814 31 857 38 878.5 41.5L900 45L900 0L878.5 0C857 0 814 0 771.2 0C728.3 0 685.7 0 642.8 0C600 0 557 0 514.2 0C471.3 0 428.7 0 385.8 0C343 0 300 0 257.2 0C214.3 0 171.7 0 128.8 0C86 0 43 0 21.5 0L0 0Z" fill="#ffd2fc"></path></svg>